<svg width="411" height="71" viewBox="0 0 411 71" fill="none" xmlns="http://www.w3.org/2000/svg">
<path d="M381.712 69.2764V34.702H386.964V39.7552H387.363C388.826 36.6302 392.549 33.8376 397.935 33.8376C405.98 33.8376 410.834 39.8881 410.834 47.5344V69.2764H405.581V47.8668C405.581 42.3482 401.525 38.7578 396.672 38.7578C391.219 38.7578 386.964 42.9466 386.964 48.6647V69.2764H381.712Z" fill="#292929"/>
<path d="M355.676 70.1407C345.303 70.1407 337.657 62.4945 337.657 51.9892C337.657 41.5504 345.436 33.8376 355.742 33.8376C366.181 33.8376 373.761 41.6169 373.761 51.9892C373.761 62.3615 366.048 70.1407 355.676 70.1407ZM355.676 65.3535C363.123 65.3535 368.375 59.7019 368.375 51.9892C368.375 44.3429 363.123 38.6248 355.676 38.6248C348.229 38.6248 343.043 44.4094 343.043 51.9892C343.043 59.7684 348.295 65.3535 355.676 65.3535Z" fill="#292929"/>
<path d="M327.815 28.452C325.621 28.452 324.025 26.7898 324.025 24.5956C324.025 22.468 325.621 20.8057 327.815 20.8057C330.076 20.8057 331.671 22.468 331.671 24.5956C331.671 26.7898 330.076 28.452 327.815 28.452ZM325.089 69.2764V34.702H330.342V69.2764H325.089Z" fill="#292929"/>
<path d="M311.541 69.2761C305.158 69.2761 301.236 65.8186 301.236 58.8373V39.1565H294.72V34.7017H299.906C300.837 34.7017 301.568 34.1033 301.568 32.973V24.6618H306.488V34.7017H317.126V39.1565H306.488V58.7708C306.488 62.4942 307.884 64.6883 311.874 64.6883H316.661V69.2761H311.541Z" fill="#292929"/>
<path d="M270.626 70.1407C260.453 70.1407 253.406 62.6274 253.406 52.0557C253.406 41.4174 260.453 33.8376 270.227 33.8376C277.475 33.8376 281.331 38.4919 282.395 40.2871H282.794V34.702H288.046V69.2764H282.993V63.8242H282.594C281.73 65.0875 278.14 70.1407 270.626 70.1407ZM270.959 65.42C278.472 65.42 282.993 59.303 282.993 52.0557C282.993 43.545 277.674 38.6248 270.826 38.6248C263.711 38.6248 258.791 44.2099 258.791 52.0557C258.791 60.1673 263.711 65.42 270.959 65.42Z" fill="#292929"/>
<path d="M195.321 69.2764V34.702H200.574V39.6887H200.972C202.635 36.4972 205.959 33.8376 211.079 33.8376C216.265 33.8376 220.055 36.3642 221.983 40.1541H222.449C224.776 35.6993 228.565 33.8376 233.419 33.8376C241.132 33.8376 246.119 39.2897 246.119 46.8695V69.2764H240.866V48.5982C240.866 42.0823 237.608 38.7578 232.488 38.7578C227.635 38.7578 223.379 42.2153 223.379 48.6647V69.2764H218.127V47.6009C218.127 42.0823 214.403 38.7578 209.55 38.7578C204.696 38.7578 200.574 42.6142 200.574 48.4652V69.2764H195.321Z" fill="#292929"/>
<path d="M170.029 69.2762V34.7019H175.215V41.1513H175.614C176.612 38.2258 180.003 34.7019 185.056 34.7019H187.981V39.9545H185.122C178.806 39.9545 175.282 44.8747 175.282 51.4571V69.2762H170.029Z" fill="#292929"/>
<path d="M143.993 70.1407C133.621 70.1407 125.975 62.4945 125.975 51.9892C125.975 41.5504 133.754 33.8376 144.06 33.8376C154.499 33.8376 162.079 41.6169 162.079 51.9892C162.079 62.3615 154.366 70.1407 143.993 70.1407ZM143.993 65.3535C151.44 65.3535 156.693 59.7019 156.693 51.9892C156.693 44.3429 151.44 38.6248 143.993 38.6248C136.547 38.6248 131.361 44.4094 131.361 51.9892C131.361 59.7684 136.613 65.3535 143.993 65.3535Z" fill="#292929"/>
<path d="M95.1121 70.1407V22.1122H121.641V27.0324H100.498V42.9898H120.245V47.8435H100.498V70.1407H95.1121Z" fill="#292929"/>
<path fill-rule="evenodd" clip-rule="evenodd" d="M0 0H69.1349V4.60895H4.60899V65.2386H21.4812V43.7576H45.2669V48.3665H26.0902V69.8475H0V0Z" fill="#292929"/>
<path fill-rule="evenodd" clip-rule="evenodd" d="M65.2388 26.0902H22.1941V21.4813H69.8478V69.8478H46.0621V65.2389H65.2388V26.0902Z" fill="#292929"/>
</svg>
