<svg width="213" height="34" viewBox="0 0 213 34" fill="none" xmlns="http://www.w3.org/2000/svg">
<path d="M192.85 32.6155V9.35066H196.385V12.7509H196.653C197.638 10.6481 200.143 8.76904 203.767 8.76904C209.18 8.76904 212.446 12.8404 212.446 17.9855V32.6155H208.912V18.2092C208.912 14.4958 206.183 12.0798 202.917 12.0798C199.248 12.0798 196.385 14.8984 196.385 18.7461V32.6155H192.85Z" fill="#292929"/>
<path d="M175.331 33.1971C168.352 33.1971 163.207 28.052 163.207 20.9831C163.207 13.9589 168.441 8.76904 175.376 8.76904C182.4 8.76904 187.5 14.0036 187.5 20.9831C187.5 27.9625 182.311 33.1971 175.331 33.1971ZM175.331 29.9758C180.342 29.9758 183.876 26.1729 183.876 20.9831C183.876 15.838 180.342 11.9903 175.331 11.9903C170.32 11.9903 166.83 15.8827 166.83 20.9831C166.83 26.2176 170.365 29.9758 175.331 29.9758Z" fill="#292929"/>
<path d="M156.584 5.1451C155.107 5.1451 154.034 4.0266 154.034 2.55018C154.034 1.1185 155.107 0 156.584 0C158.105 0 159.179 1.1185 159.179 2.55018C159.179 4.0266 158.105 5.1451 156.584 5.1451ZM154.75 32.6155V9.35066H158.284V32.6155H154.75Z" fill="#292929"/>
<path d="M145.633 32.6153C141.338 32.6153 138.699 30.2888 138.699 25.5911V12.348H134.314V9.35046H137.804C138.43 9.35046 138.922 8.9478 138.922 8.18723V2.59473H142.233V9.35046H149.392V12.348H142.233V25.5463C142.233 28.0518 143.173 29.5282 145.857 29.5282H149.078V32.6153H145.633Z" fill="#292929"/>
<path d="M118.102 33.1971C111.257 33.1971 106.514 28.1415 106.514 21.0278C106.514 13.8694 111.257 8.76904 117.834 8.76904C122.71 8.76904 125.305 11.9008 126.021 13.1088H126.289V9.35066H129.824V32.6155H126.424V28.9468H126.155C125.574 29.7968 123.158 33.1971 118.102 33.1971ZM118.326 30.0205C123.381 30.0205 126.424 25.9045 126.424 21.0278C126.424 15.3011 122.845 11.9903 118.236 11.9903C113.449 11.9903 110.138 15.7485 110.138 21.0278C110.138 26.4861 113.449 30.0205 118.326 30.0205Z" fill="#292929"/>
<path d="M67.4297 32.6155V9.35066H70.9641V12.7062H71.2326C72.3511 10.5586 74.5881 8.76904 78.0331 8.76904C81.5228 8.76904 84.073 10.4692 85.3704 13.0193H85.6836C87.2495 10.0218 89.7997 8.76904 93.0657 8.76904C98.2555 8.76904 101.611 12.4377 101.611 17.5381V32.6155H98.0766V18.7013C98.0766 14.3168 95.8843 12.0798 92.4393 12.0798C89.1733 12.0798 86.31 14.4063 86.31 18.7461V32.6155H82.7755V18.0302C82.7755 14.3168 80.2701 12.0798 77.004 12.0798C73.738 12.0798 70.9641 14.6747 70.9641 18.6118V32.6155H67.4297Z" fill="#292929"/>
<path d="M50.4111 32.6154V9.35059H53.9009V13.6904H54.1693C54.8404 11.7218 57.1221 9.35059 60.5224 9.35059H62.4909V12.885H60.5671C56.3168 12.885 53.9456 16.1958 53.9456 20.6251V32.6154H50.4111Z" fill="#292929"/>
<path d="M32.8919 33.1971C25.9124 33.1971 20.7673 28.052 20.7673 20.9831C20.7673 13.9589 26.0019 8.76904 32.9366 8.76904C39.9608 8.76904 45.0612 14.0036 45.0612 20.9831C45.0612 27.9625 39.8713 33.1971 32.8919 33.1971ZM32.8919 29.9758C37.9028 29.9758 41.4372 26.1729 41.4372 20.9831C41.4372 15.838 37.9028 11.9903 32.8919 11.9903C27.881 11.9903 24.3913 15.8827 24.3913 20.9831C24.3913 26.2176 27.9257 29.9758 32.8919 29.9758Z" fill="#292929"/>
<path d="M0 32.6154V1.29736H17.8513V4.60812H3.62394V15.3457H16.9117V18.6117H3.62394V32.6154H0Z" fill="#292929"/>
</svg>
