<svg width="280" height="60" viewBox="0 0 280 60" fill="none" xmlns="http://www.w3.org/2000/svg">
<path fill-rule="evenodd" clip-rule="evenodd" d="M0 0.985352H53.8735V4.24535H3.26V51.985H16.7926V35.1924H35.2151V38.4524H20.0526V55.245H0V0.985352Z" fill="#292929"/>
<path fill-rule="evenodd" clip-rule="evenodd" d="M50.9988 21.0382H17.1778V17.7782H54.2588V55.2453H35.8362V51.9853H50.9988V21.0382Z" fill="#292929"/>
<path d="M276.183 55.8457C274.001 55.8457 272.759 54.6571 272.6 52.9363H273.966C274.125 54.0362 274.906 54.6217 276.254 54.6217C277.638 54.6217 278.401 53.9475 278.401 53.0073C278.401 50.4173 272.883 52.3864 272.883 48.732C272.883 47.1708 274.285 46.1597 276.219 46.1597C277.922 46.1597 279.341 47.1531 279.483 48.8207H278.134C278.01 47.9514 277.354 47.366 276.13 47.366C274.977 47.366 274.232 47.9337 274.232 48.732C274.232 51.0736 279.767 49.1222 279.767 52.9363C279.767 54.6749 278.33 55.8457 276.183 55.8457Z" fill="#292929"/>
<path d="M270.151 55.6151C268.998 55.6151 268.324 54.9055 268.324 53.6459V42.3101H269.725V53.6459C269.725 54.1072 269.956 54.3733 270.4 54.3733H270.825V55.6151H270.151Z" fill="#292929"/>
<path d="M261.914 55.8457C259.147 55.8457 257.107 53.8056 257.107 51.0027C257.107 48.2175 259.183 46.1597 261.932 46.1597C264.717 46.1597 266.74 48.2352 266.74 51.0027C266.74 53.7701 264.682 55.8457 261.914 55.8457ZM261.914 54.5684C263.901 54.5684 265.303 53.0605 265.303 51.0027C265.303 48.9626 263.901 47.437 261.914 47.437C259.928 47.437 258.544 48.9803 258.544 51.0027C258.544 53.0783 259.945 54.5684 261.914 54.5684Z" fill="#292929"/>
<path d="M250.87 55.8457C248.103 55.8457 246.062 53.8056 246.062 51.0027C246.062 48.2175 248.138 46.1597 250.888 46.1597C253.673 46.1597 255.695 48.2352 255.695 51.0027C255.695 53.7701 253.637 55.8457 250.87 55.8457ZM250.87 54.5684C252.857 54.5684 254.258 53.0605 254.258 51.0027C254.258 48.9626 252.857 47.437 250.87 47.437C248.883 47.437 247.499 48.9803 247.499 51.0027C247.499 53.0783 248.901 54.5684 250.87 54.5684Z" fill="#292929"/>
<path d="M236.91 55.6153V43.1973H241.362C243.615 43.1973 245.159 44.6697 245.159 46.9227C245.159 49.1579 243.544 50.7013 241.362 50.7013H238.347V55.6153H236.91ZM238.347 49.424H241.238C242.728 49.424 243.686 48.3596 243.686 46.9227C243.686 45.5035 242.728 44.4745 241.238 44.4745H238.347V49.424Z" fill="#292929"/>
<path d="M226.131 55.8457C223.949 55.8457 222.708 54.6571 222.548 52.9363H223.914C224.073 54.0362 224.854 54.6217 226.202 54.6217C227.586 54.6217 228.349 53.9475 228.349 53.0073C228.349 50.4173 222.832 52.3864 222.832 48.732C222.832 47.1708 224.233 46.1597 226.167 46.1597C227.87 46.1597 229.289 47.1531 229.431 48.8207H228.083C227.959 47.9514 227.302 47.366 226.078 47.366C224.925 47.366 224.18 47.9337 224.18 48.732C224.18 51.0736 229.715 49.1222 229.715 52.9363C229.715 54.6749 228.278 55.8457 226.131 55.8457Z" fill="#292929"/>
<path d="M216.562 55.8457C213.741 55.8457 211.95 53.7701 211.95 51.0027C211.95 48.0578 213.954 46.1597 216.473 46.1597C219.276 46.1597 220.944 48.2175 220.944 50.8785V51.4994H213.422C213.493 53.3444 214.682 54.5684 216.58 54.5684C217.804 54.5684 218.975 53.983 219.401 52.9009H220.855C220.341 54.6216 218.726 55.8457 216.562 55.8457ZM213.458 50.2576H219.454C219.33 48.4127 218.035 47.437 216.473 47.437C214.93 47.437 213.6 48.5546 213.458 50.2576Z" fill="#292929"/>
<path d="M201.286 59.6953V46.3903H202.634V47.845H202.74C202.971 47.5079 203.929 46.1597 205.934 46.1597C208.648 46.1597 210.528 48.1643 210.528 50.985C210.528 53.8234 208.648 55.8457 206.04 55.8457C204.106 55.8457 203.077 54.6039 202.794 54.1249H202.687V59.6953H201.286ZM205.88 54.5684C207.778 54.5684 209.091 53.0783 209.091 50.985C209.091 48.8207 207.778 47.4192 205.845 47.4192C203.84 47.4192 202.634 49.0513 202.634 50.985C202.634 53.2557 204.053 54.5684 205.88 54.5684Z" fill="#292929"/>
<path d="M193.97 55.8457C191.256 55.8457 189.375 53.8411 189.375 51.0204C189.375 48.182 191.256 46.1597 193.864 46.1597C195.797 46.1597 196.826 47.4015 197.11 47.8804H197.217V46.3903H198.618V55.6151H197.27V54.1604H197.163C196.933 54.4975 195.975 55.8457 193.97 55.8457ZM194.059 54.5862C196.063 54.5862 197.27 52.9541 197.27 51.0204C197.27 48.7497 195.851 47.437 194.023 47.437C192.125 47.437 190.812 48.9271 190.812 51.0204C190.812 53.1847 192.125 54.5862 194.059 54.5862Z" fill="#292929"/>
<path d="M183.587 55.8457C180.802 55.8457 178.851 53.7346 178.851 51.0027C178.851 48.2707 180.855 46.1597 183.569 46.1597C185.574 46.1597 187.437 47.366 187.933 49.4238H186.479C186.106 48.2175 184.935 47.437 183.605 47.437C181.636 47.437 180.305 48.9981 180.305 51.0027C180.305 53.0783 181.707 54.5684 183.64 54.5684C184.971 54.5684 186.159 53.7879 186.514 52.5816H187.951C187.472 54.6394 185.592 55.8457 183.587 55.8457Z" fill="#292929"/>
<path d="M173.577 55.8457C171.395 55.8457 170.153 54.6571 169.993 52.9363H171.359C171.519 54.0362 172.299 54.6217 173.648 54.6217C175.031 54.6217 175.794 53.9475 175.794 53.0073C175.794 50.4173 170.277 52.3864 170.277 48.732C170.277 47.1708 171.678 46.1597 173.612 46.1597C175.315 46.1597 176.734 47.1531 176.876 48.8207H175.528C175.404 47.9514 174.747 47.366 173.523 47.366C172.37 47.366 171.625 47.9337 171.625 48.732C171.625 51.0736 177.16 49.1222 177.16 52.9363C177.16 54.6749 175.723 55.8457 173.577 55.8457Z" fill="#292929"/>
<path d="M163.21 55.8457C160.496 55.8457 158.615 53.8411 158.615 51.0204C158.615 48.182 160.496 46.1596 163.103 46.1596C165.037 46.1596 166.066 47.4014 166.35 47.8804H166.456V42.3101H167.858V55.6151H166.51V54.1604H166.403C166.172 54.4974 165.215 55.8457 163.21 55.8457ZM163.299 54.5861C165.303 54.5861 166.51 52.9541 166.51 51.0204C166.51 48.7497 165.09 47.4369 163.263 47.4369C161.365 47.4369 160.052 48.9271 160.052 51.0204C160.052 53.1847 161.365 54.5861 163.299 54.5861Z" fill="#292929"/>
<path d="M148.887 55.6151V46.3903H150.288V47.7385H150.395C150.785 46.9048 151.778 46.1597 153.215 46.1597C155.362 46.1597 156.657 47.774 156.657 49.8141V55.6151H155.255V49.9028C155.255 48.4304 154.173 47.4724 152.878 47.4724C151.424 47.4724 150.288 48.59 150.288 50.1157V55.6151H148.887Z" fill="#292929"/>
<path d="M141.571 55.8457C138.857 55.8457 136.977 53.8411 136.977 51.0204C136.977 48.182 138.857 46.1597 141.465 46.1597C143.398 46.1597 144.427 47.4015 144.711 47.8804H144.818V46.3903H146.219V55.6151H144.871V54.1604H144.764C144.534 54.4975 143.576 55.8457 141.571 55.8457ZM141.66 54.5862C143.665 54.5862 144.871 52.9541 144.871 51.0204C144.871 48.7497 143.452 47.437 141.624 47.437C139.726 47.437 138.413 48.9271 138.413 51.0204C138.413 53.1847 139.726 54.5862 141.66 54.5862Z" fill="#292929"/>
<path d="M129.106 55.6153V43.1973H130.543V54.3202H135.9V55.6153H129.106Z" fill="#292929"/>
<path d="M113.873 55.6151V46.3903H115.275V47.7385H115.381C115.771 46.9048 116.765 46.1597 118.202 46.1597C120.348 46.1597 121.643 47.774 121.643 49.8141V55.6151H120.242V49.9028C120.242 48.4304 119.16 47.4724 117.865 47.4724C116.41 47.4724 115.275 48.59 115.275 50.1157V55.6151H113.873Z" fill="#292929"/>
<path d="M106.717 59.9259C104.464 59.9259 103.01 58.7018 102.708 57.052H104.039C104.287 58.1342 105.351 58.7019 106.717 58.7019C108.882 58.7019 109.857 57.4955 109.857 55.6151V54.1604H109.751C109.52 54.4975 108.562 55.8457 106.558 55.8457C103.844 55.8457 101.963 53.8411 101.963 51.0204C101.963 48.182 103.844 46.1597 106.451 46.1597C108.385 46.1597 109.414 47.4015 109.698 47.8804H109.804V46.3903H111.206V55.6151C111.206 58.3293 109.485 59.9259 106.717 59.9259ZM106.646 54.5862C108.651 54.5862 109.857 52.9541 109.857 51.0204C109.857 48.7497 108.438 47.437 106.611 47.437C104.713 47.437 103.4 48.9271 103.4 51.0204C103.4 53.1847 104.713 54.5862 106.646 54.5862Z" fill="#292929"/>
<path d="M99.3371 44.7227C98.7517 44.7227 98.3259 44.2792 98.3259 43.6938C98.3259 43.1261 98.7517 42.6826 99.3371 42.6826C99.9403 42.6826 100.366 43.1261 100.366 43.6938C100.366 44.2792 99.9403 44.7227 99.3371 44.7227ZM98.6098 55.6151V46.3903H100.011V55.6151H98.6098Z" fill="#292929"/>
<path d="M92.6262 55.8457C90.4442 55.8457 89.2024 54.6571 89.0427 52.9363H90.4087C90.5684 54.0362 91.3489 54.6217 92.6972 54.6217C94.0809 54.6217 94.8437 53.9475 94.8437 53.0073C94.8437 50.4173 89.3266 52.3864 89.3266 48.732C89.3266 47.1708 90.728 46.1597 92.6617 46.1597C94.3647 46.1597 95.7839 47.1531 95.9258 48.8207H94.5776C94.4534 47.9514 93.797 47.366 92.573 47.366C91.4199 47.366 90.6748 47.9337 90.6748 48.732C90.6748 51.0736 96.2097 49.1222 96.2097 52.9363C96.2097 54.6749 94.7727 55.8457 92.6262 55.8457Z" fill="#292929"/>
<path d="M83.0567 55.8457C80.2361 55.8457 78.4443 53.7701 78.4443 51.0027C78.4443 48.0578 80.449 46.1597 82.968 46.1597C85.771 46.1597 87.4385 48.2175 87.4385 50.8785V51.4994H79.9168C79.9877 53.3444 81.1763 54.5684 83.0745 54.5684C84.2985 54.5684 85.4694 53.983 85.8951 52.9009H87.3498C86.8354 54.6216 85.221 55.8457 83.0567 55.8457ZM79.9522 50.2576H85.9484C85.8242 48.4127 84.5292 47.437 82.968 47.437C81.4247 47.437 80.0942 48.5546 79.9522 50.2576Z" fill="#292929"/>
<path d="M67.1089 55.6153V43.1973H70.7988C74.7371 43.1973 77.0255 45.7873 77.0255 49.4063C77.0255 53.2558 74.7371 55.6153 70.7988 55.6153H67.1089ZM68.5458 54.338H70.7988C73.7436 54.338 75.5531 52.5285 75.5531 49.4063C75.5531 46.4082 73.7791 44.4923 70.7988 44.4923H68.5458V54.338Z" fill="#292929"/>
<path d="M260.196 32.6155V9.35066H263.73V12.7509H263.998C264.983 10.6481 267.488 8.76904 271.112 8.76904C276.526 8.76904 279.792 12.8404 279.792 17.9855V32.6155H276.257V18.2092C276.257 14.4958 273.528 12.0798 270.262 12.0798C266.593 12.0798 263.73 14.8984 263.73 18.7461V32.6155H260.196Z" fill="#292929"/>
<path d="M242.676 33.1971C235.697 33.1971 230.552 28.052 230.552 20.9831C230.552 13.9589 235.786 8.76904 242.721 8.76904C249.745 8.76904 254.846 14.0036 254.846 20.9831C254.846 27.9625 249.656 33.1971 242.676 33.1971ZM242.676 29.9758C247.687 29.9758 251.222 26.1729 251.222 20.9831C251.222 15.838 247.687 11.9903 242.676 11.9903C237.665 11.9903 234.176 15.8827 234.176 20.9831C234.176 26.2176 237.71 29.9758 242.676 29.9758Z" fill="#292929"/>
<path d="M223.929 5.1451C222.453 5.1451 221.379 4.0266 221.379 2.55018C221.379 1.1185 222.453 0 223.929 0C225.45 0 226.524 1.1185 226.524 2.55018C226.524 4.0266 225.45 5.1451 223.929 5.1451ZM222.095 32.6155V9.35066H225.629V32.6155H222.095Z" fill="#292929"/>
<path d="M212.979 32.6153C208.684 32.6153 206.044 30.2888 206.044 25.5911V12.348H201.659V9.35046H205.149C205.776 9.35046 206.268 8.9478 206.268 8.18723V2.59473H209.578V9.35046H216.737V12.348H209.578V25.5463C209.578 28.0518 210.518 29.5282 213.202 29.5282H216.424V32.6153H212.979Z" fill="#292929"/>
<path d="M185.447 33.1971C178.602 33.1971 173.86 28.1415 173.86 21.0278C173.86 13.8694 178.602 8.76904 185.179 8.76904C190.055 8.76904 192.65 11.9008 193.366 13.1088H193.635V9.35066H197.169V32.6155H193.769V28.9468H193.5C192.919 29.7968 190.503 33.1971 185.447 33.1971ZM185.671 30.0205C190.727 30.0205 193.769 25.9045 193.769 21.0278C193.769 15.3011 190.19 11.9903 185.581 11.9903C180.794 11.9903 177.484 15.7485 177.484 21.0278C177.484 26.4861 180.794 30.0205 185.671 30.0205Z" fill="#292929"/>
<path d="M134.775 32.6155V9.35066H138.309V12.7062H138.578C139.696 10.5586 141.933 8.76904 145.378 8.76904C148.868 8.76904 151.418 10.4692 152.716 13.0193H153.029C154.595 10.0218 157.145 8.76904 160.411 8.76904C165.601 8.76904 168.956 12.4377 168.956 17.5381V32.6155H165.422V18.7013C165.422 14.3168 163.23 12.0798 159.785 12.0798C156.519 12.0798 153.655 14.4063 153.655 18.7461V32.6155H150.121V18.0302C150.121 14.3168 147.615 12.0798 144.349 12.0798C141.083 12.0798 138.309 14.6747 138.309 18.6118V32.6155H134.775Z" fill="#292929"/>
<path d="M117.756 32.6154V9.35059H121.246V13.6904H121.515C122.186 11.7218 124.467 9.35059 127.868 9.35059H129.836V12.885H127.912C123.662 12.885 121.291 16.1958 121.291 20.6251V32.6154H117.756Z" fill="#292929"/>
<path d="M100.237 33.1971C93.2577 33.1971 88.1125 28.052 88.1125 20.9831C88.1125 13.9589 93.3471 8.76904 100.282 8.76904C107.306 8.76904 112.406 14.0036 112.406 20.9831C112.406 27.9625 107.217 33.1971 100.237 33.1971ZM100.237 29.9758C105.248 29.9758 108.782 26.1729 108.782 20.9831C108.782 15.838 105.248 11.9903 100.237 11.9903C95.2262 11.9903 91.7365 15.8827 91.7365 20.9831C91.7365 26.2176 95.271 29.9758 100.237 29.9758Z" fill="#292929"/>
<path d="M67.3452 32.6154V1.29736H85.1965V4.60812H70.9692V15.3457H84.2569V18.6117H70.9692V32.6154H67.3452Z" fill="#292929"/>
</svg>
