<svg width="213" height="115" viewBox="0 0 213 115" fill="none" xmlns="http://www.w3.org/2000/svg">
<path fill-rule="evenodd" clip-rule="evenodd" d="M0 0H60V4H4V56.619H18.6429V37.9762H39.2857V41.9762H22.6429V60.619H0V0Z" fill="white"/>
<path fill-rule="evenodd" clip-rule="evenodd" d="M56.6188 22.6431H19.2616V18.6431H60.6188V60.6193H39.9759V56.6193H56.6188V22.6431Z" fill="white"/>
<path d="M193.324 114.303V91.0382H196.859V94.4384H197.127C198.112 92.3356 200.617 90.4565 204.241 90.4565C209.655 90.4565 212.921 94.5279 212.921 99.673V114.303H209.386V99.8967C209.386 96.1833 206.657 93.7673 203.391 93.7673C199.722 93.7673 196.859 96.5859 196.859 100.434V114.303H193.324Z" fill="white"/>
<path d="M175.805 114.885C168.826 114.885 163.681 109.739 163.681 102.671C163.681 95.6464 168.915 90.4565 175.85 90.4565C182.874 90.4565 187.974 95.6911 187.974 102.671C187.974 109.65 182.785 114.885 175.805 114.885ZM175.805 111.663C180.816 111.663 184.351 107.86 184.351 102.671C184.351 97.5255 180.816 93.6778 175.805 93.6778C170.794 93.6778 167.305 97.5702 167.305 102.671C167.305 107.905 170.839 111.663 175.805 111.663Z" fill="white"/>
<path d="M157.058 86.8326C155.582 86.8326 154.508 85.7141 154.508 84.2377C154.508 82.806 155.582 81.6875 157.058 81.6875C158.579 81.6875 159.653 82.806 159.653 84.2377C159.653 85.7141 158.579 86.8326 157.058 86.8326ZM155.224 114.303V91.0382H158.758V114.303H155.224Z" fill="white"/>
<path d="M146.108 114.303C141.813 114.303 139.173 111.976 139.173 107.279V94.0355H134.788V91.038H138.278C138.904 91.038 139.397 90.6353 139.397 89.8747V84.2822H142.707V91.038H149.866V94.0355H142.707V107.234C142.707 109.739 143.647 111.216 146.331 111.216H149.553V114.303H146.108Z" fill="white"/>
<path d="M118.576 114.885C111.731 114.885 106.989 109.829 106.989 102.715C106.989 95.5569 111.731 90.4565 118.308 90.4565C123.184 90.4565 125.779 93.5883 126.495 94.7963H126.764V91.0382H130.298V114.303H126.898V110.634H126.629C126.048 111.484 123.632 114.885 118.576 114.885ZM118.8 111.708C123.856 111.708 126.898 107.592 126.898 102.715C126.898 96.9886 123.319 93.6778 118.71 93.6778C113.923 93.6778 110.612 97.436 110.612 102.715C110.612 108.174 113.923 111.708 118.8 111.708Z" fill="white"/>
<path d="M67.9038 114.303V91.0382H71.4383V94.3937H71.7067C72.8252 92.2461 75.0622 90.4565 78.5072 90.4565C81.9969 90.4565 84.5471 92.1567 85.8445 94.7068H86.1577C87.7236 91.7093 90.2738 90.4565 93.5398 90.4565C98.7297 90.4565 102.085 94.1252 102.085 99.2256V114.303H98.5507V100.389C98.5507 96.0043 96.3584 93.7673 92.9135 93.7673C89.6474 93.7673 86.7841 96.0938 86.7841 100.434V114.303H83.2496V99.7177C83.2496 96.0043 80.7442 93.7673 77.4782 93.7673C74.2121 93.7673 71.4383 96.3622 71.4383 100.299V114.303H67.9038Z" fill="white"/>
<path d="M50.8853 114.303V91.0381H54.375V95.3779H54.6434C55.3145 93.4093 57.5963 91.0381 60.9965 91.0381H62.9651V94.5725H61.0412C56.7909 94.5725 54.4197 97.8833 54.4197 102.313V114.303H50.8853Z" fill="white"/>
<path d="M33.366 114.885C26.3866 114.885 21.2415 109.739 21.2415 102.671C21.2415 95.6464 26.476 90.4565 33.4107 90.4565C40.4349 90.4565 45.5353 95.6911 45.5353 102.671C45.5353 109.65 40.3454 114.885 33.366 114.885ZM33.366 111.663C38.3769 111.663 41.9113 107.86 41.9113 102.671C41.9113 97.5255 38.3769 93.6778 33.366 93.6778C28.3551 93.6778 24.8654 97.5702 24.8654 102.671C24.8654 107.905 28.3999 111.663 33.366 111.663Z" fill="white"/>
<path d="M0.474121 114.303V82.9849H18.3254V86.2956H4.09806V97.0332H17.3858V100.299H4.09806V114.303H0.474121Z" fill="white"/>
</svg>
